# xmcd
#
# Track frame offsets:
# 150
# 17071
# 34162
# 52937
# 70577
# 86909
# 104180
# 124193
# 143268
# 162368
# 185226
# 207931
# 224051
# 242069
# 260761
# 279592
#
# Disc length: 4012 seconds
#
#
# Revision: 0
# Processed by: cddbd v1.5.1PL2 Copyright (c) Steve Scherf et al.
# Submitted via: FreeRIP 2.944 
#
DISCID=f80faa10
DTITLE=Jessica Andrews - Now 
DYEAR=2003
DGENRE=Country
TTITLE0=There's More To Me Than You
TTITLE1=When Gentry Plays Guitar
TTITLE2=I Wish For You
TTITLE3=To Love You Once
TTITLE4=I Bring It to You
TTITLE5=Never Be Forgotten
TTITLE6=They Are The Roses
TTITLE7=Sunshine And Love
TTITLE8=You're the Man (That Brings the Woman Out of Me)
TTITLE9=Cowboy Guarantee
TTITLE10=Now
TTITLE11=Second Sunday
TTITLE12=Windows On A Train
TTITLE13=God Don't Give Up on Us
TTITLE14=Good Time
TTITLE15=There's More To Me Than You (Ballad)
EXTD=
EXTT0=
EXTT1=
EXTT2=
EXTT3=
EXTT4=
EXTT5=
EXTT6=
EXTT7=
EXTT8=
EXTT9=
EXTT10=
EXTT11=
EXTT12=
EXTT13=
EXTT14=
EXTT15=
PLAYORDER=
